<svg id="visual" viewBox="0 0 1400 900" width="1400" height="900" xmlns="http://www.w3.org/2000/svg" xmlns:xlink="http://www.w3.org/1999/xlink" version="1.1"><path d="M0 548L38.8 550.5C77.7 553 155.3 558 233.2 529.5C311 501 389 439 466.8 434.7C544.7 430.3 622.3 483.7 700 511.5C777.7 539.3 855.3 541.7 933.2 513.3C1011 485 1089 426 1166.8 416.3C1244.7 406.7 1322.3 446.3 1361.2 466.2L1400 486L1400 901L1361.2 901C1322.3 901 1244.7 901 1166.8 901C1089 901 1011 901 933.2 901C855.3 901 777.7 901 700 901C622.3 901 544.7 901 466.8 901C389 901 311 901 233.2 901C155.3 901 77.7 901 38.8 901L0 901Z" fill="#D2D3C9" stroke-linecap="round" stroke-linejoin="miter"></path></svg>