<svg id="visual" viewBox="0 0 900 600" width="900" height="600" xmlns="http://www.w3.org/2000/svg" xmlns:xlink="http://www.w3.org/1999/xlink" version="1.1"><path d="M0 360L15 352.2C30 344.3 60 328.7 90 321.8C120 315 150 317 180 322.5C210 328 240 337 270 332.5C300 328 330 310 360 306.7C390 303.3 420 314.7 450 325.3C480 336 510 346 540 341C570 336 600 316 630 308.8C660 301.7 690 307.3 720 321.5C750 335.7 780 358.3 810 366.8C840 375.3 870 369.7 885 366.8L900 364L900 601L885 601C870 601 840 601 810 601C780 601 750 601 720 601C690 601 660 601 630 601C600 601 570 601 540 601C510 601 480 601 450 601C420 601 390 601 360 601C330 601 300 601 270 601C240 601 210 601 180 601C150 601 120 601 90 601C60 601 30 601 15 601L0 601Z" fill="#dc5f00"></path><path d="M0 495L15 495.8C30 496.7 60 498.3 90 498C120 497.7 150 495.3 180 494.7C210 494 240 495 270 493.2C300 491.3 330 486.7 360 474.3C390 462 420 442 450 436.2C480 430.3 510 438.7 540 449.3C570 460 600 473 630 469.2C660 465.3 690 444.7 720 437.2C750 429.7 780 435.3 810 447.2C840 459 870 477 885 486L900 495L900 601L885 601C870 601 840 601 810 601C780 601 750 601 720 601C690 601 660 601 630 601C600 601 570 601 540 601C510 601 480 601 450 601C420 601 390 601 360 601C330 601 300 601 270 601C240 601 210 601 180 601C150 601 120 601 90 601C60 601 30 601 15 601L0 601Z" fill="#d2d3c9"></path></svg>