<svg id="visual" viewBox="0 0 900 600" width="900" height="600" xmlns="http://www.w3.org/2000/svg" xmlns:xlink="http://www.w3.org/1999/xlink" version="1.1"><g fill="#297EA6"><path d="M31.8 18.4L31.8 82.1L-31.8 82.1L-31.8 18.4L-87 -13.5L-55.2 -68.6L0 -36.8L55.2 -68.6L87 -13.5Z" transform="translate(606 581)"></path><path d="M18.1 10.4L18.1 46.6L-18.1 46.6L-18.1 10.4L-49.4 -7.6L-31.3 -39L0 -20.9L31.3 -39L49.4 -7.6Z" transform="translate(710 302)"></path><path d="M22.7 13.1L22.7 58.4L-22.7 58.4L-22.7 13.1L-61.9 -9.6L-39.3 -48.8L0 -26.2L39.3 -48.8L61.9 -9.6Z" transform="translate(134 144)"></path><path d="M29.4 17L29.4 75.8L-29.4 75.8L-29.4 17L-80.4 -12.4L-50.9 -63.4L0 -34L50.9 -63.4L80.4 -12.4Z" transform="translate(481 103)"></path></g></svg>